<svg height="512" viewBox="0 0 128 128" width="512" xmlns="http://www.w3.org/2000/svg"><g><path d="m64 24.788a39.212 39.212 0 1 0 39.213 39.212 39.257 39.257 0 0 0 -39.213-39.212zm0 74.924a35.712 35.712 0 1 1 35.713-35.712 35.753 35.753 0 0 1 -35.713 35.712z"/><path d="m68.993 44.317a9.346 9.346 0 0 1 -4.893 1.559c-.061 0-.134 0-.193 0a9.336 9.336 0 0 1 -4.905-1.559c-3.756-2.411-11.687-3.952-16.968 2.167-4.5 5.218-4.078 14.7.909 20.3 4.338 4.87 4.858 14.479 5.053 18.1.186 3.45 2.292 6.091 5.008 6.28 1.676.111 5.746-.631 7.584-10.039 1.237-6.338 3.03-7.71 3.408-7.71s2.171 1.372 3.408 7.71c1.738 8.9 5.482 10.049 7.293 10.049.1 0 .2 0 .291-.01 2.716-.189 4.822-2.83 5.008-6.28.195-3.617.715-13.226 5.053-18.1 4.987-5.6 5.412-15.086.909-20.3-5.276-6.12-13.205-4.577-16.965-2.167zm13.446 20.142c-5.154 5.786-5.72 16.285-5.933 20.237-.093 1.714-.984 2.923-1.757 2.977-.995.057-2.847-1.794-3.905-7.218-1.7-8.711-4.66-10.54-6.844-10.54s-5.144 1.829-6.844 10.54c-1.059 5.424-2.959 7.27-3.905 7.218-.773-.054-1.664-1.263-1.757-2.977-.213-3.952-.779-14.451-5.933-20.237-4.19-4.7-3.916-12.162-.873-15.689 3.835-4.444 9.659-3.283 12.428-1.507a12.273 12.273 0 0 0 13.767 0c2.77-1.776 8.593-2.938 12.429 1.507 3.043 3.53 3.317 10.986-.873 15.689z"/><path d="m49.988 53.343a1.75 1.75 0 1 0 -2.65-2.286c-2 2.318-2.007 7.883.836 11.074a1.75 1.75 0 1 0 2.613-2.331c-1.836-2.058-1.506-5.637-.799-6.457z"/></g></svg>