<?xml version="1.0" encoding="UTF-8"?>
<svg id="Layer_1" data-name="Layer 1" xmlns="http://www.w3.org/2000/svg" viewBox="0 0 314.7 314.7">
  <defs>
    <style>
      .cls-1 {
        fill: #fff;
        stroke: #fff;
        stroke-miterlimit: 10;
      }
    </style>
  </defs>
  <path class="cls-1" d="M157.34.5C70.72.5.5,70.73.5,157.35c0,86.62,70.23,156.85,156.85,156.84,86.62,0,156.84-70.22,156.84-156.85C314.1,70.76,243.93.6,157.34.5h0ZM157.34,300.2c-78.89,0-142.85-63.96-142.84-142.85,0-78.89,63.96-142.85,142.85-142.84,78.89,0,142.84,63.96,142.84,142.85-.09,78.86-64,142.76-142.85,142.85h0Z"/>
  <path class="cls-1" d="M177.32,78.62c-5.81,3.87-12.59,6.03-19.57,6.24h-.77c-7-.2-13.79-2.36-19.62-6.24-15.02-9.64-46.75-15.81-67.87,8.67-18,20.87-16.31,58.8,3.64,81.2,17.35,19.48,19.43,57.92,20.21,72.4.74,13.8,9.17,24.36,20.03,25.12,6.7.44,22.98-2.52,30.34-40.16,4.95-25.35,12.12-30.84,13.63-30.84s8.68,5.49,13.63,30.84c6.95,35.6,21.93,40.2,29.17,40.2.4,0,.8,0,1.16-.04,10.86-.76,19.29-11.32,20.03-25.12.78-14.47,2.86-52.9,20.21-72.4,19.95-22.4,21.65-60.34,3.64-81.2-21.1-24.48-52.82-18.31-67.86-8.67h0ZM231.1,159.18c-20.62,23.14-22.88,65.14-23.73,80.95-.37,6.86-3.94,11.69-7.03,11.91-3.98.23-11.39-7.18-15.62-28.87-6.8-34.84-18.64-42.16-27.38-42.16s-20.58,7.32-27.38,42.16c-4.24,21.7-11.84,29.08-15.62,28.87-3.09-.22-6.66-5.05-7.03-11.91-.85-15.81-3.12-57.8-23.73-80.95-16.76-18.8-15.66-48.65-3.49-62.76,15.34-17.78,38.64-13.13,49.71-6.03,16.63,11.26,38.44,11.26,55.07,0,11.08-7.1,34.37-11.75,49.72,6.03,12.17,14.12,13.27,43.94-3.49,62.76Z"/>
  <path class="cls-1" d="M101.3,114.72c2.56-2.9,2.29-7.32-.61-9.88-2.9-2.56-7.32-2.29-9.88.61-.04.04-.07.08-.11.12-8,9.27-8.03,31.53,3.34,44.3,2.57,2.89,7,3.14,9.89.56s3.14-7,.56-9.89h0c-7.34-8.23-6.02-22.55-3.2-25.83h0Z"/>
</svg>