<svg id="Layer_1" data-name="Layer 1" xmlns="http://www.w3.org/2000/svg" viewBox="0 0 609.75 128.25"><defs><style>.cls-1{fill:none;}.cls-2{fill:#fff;stroke:#fff;stroke-miterlimit:10;}</style></defs><rect class="cls-1" width="609.75" height="128.25"/><path class="cls-2" d="M20.94,97H15.5v3.83H14.16V92H15.5v3.76h5.44V92h1.34v8.77H20.94Z" transform="translate(5.65 4.9)"/><path class="cls-2" d="M40.19,92h1.56l3.48,8.77H43.86l-.77-1.94H38.72l-.8,1.94H36.55Zm-1.11,5.81h3.66L41,93.37Z" transform="translate(5.65 4.9)"/><path class="cls-2" d="M60.91,94.17v6.63H59.57V92h1.19l5.57,6.65V92h1.34v8.77H66.5Z" transform="translate(5.65 4.9)"/><path class="cls-2" d="M83,92h3.57c2.6,0,4.53,1.55,4.53,4.4s-1.93,4.37-4.53,4.37H83Zm1.34,1.17v6.42h2.18a3.21,3.21,0,0,0,0-6.42Z" transform="translate(5.65 4.9)"/><path class="cls-2" d="M114.15,94.16l-3.31,4h-.26l-3.31-4v6.64h-1.34V92h1.22l3.56,4.29L114.28,92h1.22v8.77h-1.35Z" transform="translate(5.65 4.9)"/><path class="cls-2" d="M133.41,92H135l3.48,8.77h-1.36l-.78-1.94h-4.37l-.8,1.94h-1.36Zm-1.11,5.81H136l-1.77-4.47Z" transform="translate(5.65 4.9)"/><path class="cls-2" d="M152.8,92h3.57c2.59,0,4.53,1.55,4.53,4.4s-1.94,4.37-4.53,4.37H152.8Zm1.34,1.17v6.42h2.18a3.21,3.21,0,0,0,0-6.42Z" transform="translate(5.65 4.9)"/><path class="cls-2" d="M175.71,100.8V92h6.8v1.19H177v2.46h4.58v1.18H177v2.75h5.52v1.19Z" transform="translate(5.65 4.9)"/><path class="cls-2" d="M221.07,96.52a8.15,8.15,0,0,1-1.47,2.58l1.64,1.5v.2h-1.77l-.85-.81a4.84,4.84,0,0,1-2.91.94c-1.87,0-3-.93-3-2.48,0-1.21.85-1.86,1.94-2.31a2.76,2.76,0,0,1-1-2c0-1.2,1-2.19,2.71-2.19,1.58,0,2.74.92,2.74,2.17a2.44,2.44,0,0,1-2,2.36l-.27.1,1.91,1.75A6.69,6.69,0,0,0,220,95.83Zm-3.33,2.63L215.5,97c-.79.3-1.47.66-1.47,1.38s.71,1.4,1.8,1.4A3.32,3.32,0,0,0,217.74,99.15Zm-1.83-3.45.66-.23c.77-.28,1.15-.62,1.15-1.26s-.58-1.15-1.43-1.15-1.41.49-1.41,1.11S215.43,95.27,215.91,95.7Z" transform="translate(5.65 4.9)"/><path class="cls-2" d="M251.46,92H255c2.6,0,4.53,1.55,4.53,4.4s-1.93,4.37-4.53,4.37h-3.57Zm1.34,1.17v6.42H255a3.21,3.21,0,0,0,0-6.42Z" transform="translate(5.65 4.9)"/><path class="cls-2" d="M274.37,92h1.34v8.77h-1.34Z" transform="translate(5.65 4.9)"/><path class="cls-2" d="M298.86,99.77a6.65,6.65,0,0,1-3.68,1.16,4.52,4.52,0,1,1,0-9,5,5,0,0,1,3.35,1.21l-.65,1a3.86,3.86,0,0,0-2.68-1,3.27,3.27,0,1,0,.05,6.53,4.37,4.37,0,0,0,2.27-.62v-2H294.8V95.89h4.06Z" transform="translate(5.65 4.9)"/><path class="cls-2" d="M313.78,92h1.34v8.77h-1.34Z" transform="translate(5.65 4.9)"/><path class="cls-2" d="M334,93.22v7.58h-1.34V93.22h-3.14V92H337v1.19Z" transform="translate(5.65 4.9)"/><path class="cls-2" d="M353.17,92h1.56l3.48,8.77h-1.37l-.77-1.94H351.7l-.8,1.94h-1.37Zm-1.11,5.81h3.66l-1.78-4.47Z" transform="translate(5.65 4.9)"/><path class="cls-2" d="M372.56,100.8V92h1.34v7.59h4.79v1.18Z" transform="translate(5.65 4.9)"/><path class="cls-2" d="M408.48,92h3.57c2.6,0,4.53,1.55,4.53,4.4s-1.93,4.37-4.53,4.37h-3.57Zm1.34,1.17v6.42H412a3.21,3.21,0,0,0,0-6.42Z" transform="translate(5.65 4.9)"/><path class="cls-2" d="M431.39,100.8V92h6.81v1.19h-5.52v2.46h4.58v1.18h-4.58v2.75h5.52v1.19Z" transform="translate(5.65 4.9)"/><path class="cls-2" d="M454.32,94.17v6.63H453V92h1.19l5.57,6.65V92h1.34v8.77h-1.17Z" transform="translate(5.65 4.9)"/><path class="cls-2" d="M479.92,93.22v7.58h-1.34V93.22h-3.14V92h7.47v1.19Z" transform="translate(5.65 4.9)"/><path class="cls-2" d="M497.27,92h1.34v8.77h-1.34Z" transform="translate(5.65 4.9)"/><path class="cls-2" d="M513.79,98.88a5.49,5.49,0,0,0,2.78.81c1.28,0,2.16-.49,2.16-1.36,0-.61-.46-1-1.53-1.22l-1.57-.39c-1.47-.35-2.19-1.13-2.19-2.28,0-1.38,1.07-2.53,3.39-2.53a7.1,7.1,0,0,1,3.07.7l-.39,1.24a5.85,5.85,0,0,0-2.73-.7c-1.37,0-1.95.52-1.95,1.17s.41.91,1.21,1.13l1.71.44c1.54.41,2.37,1.1,2.37,2.34,0,1.63-1.5,2.7-3.57,2.7a7,7,0,0,1-3.09-.76Z" transform="translate(5.65 4.9)"/><path class="cls-2" d="M538.33,93.22v7.58H537V93.22h-3.15V92h7.48v1.19Z" transform="translate(5.65 4.9)"/><path class="cls-2" d="M555.68,92h3.82c1.94,0,3.29.86,3.29,2.81a2.71,2.71,0,0,1-2.51,2.71l3.07,3v.22h-1.54l-3.19-3.23H557v3.23h-1.34ZM557,93.2v3.3h2.62a1.6,1.6,0,0,0,1.75-1.63,1.59,1.59,0,0,0-1.75-1.67Z" transform="translate(5.65 4.9)"/><path class="cls-2" d="M579.8,97.21l-3.55-5.08V92h1.5l2.72,4,2.72-4h1.5v.1l-3.55,5.07v3.6H579.8Z" transform="translate(5.65 4.9)"/><path class="cls-2" d="M18.32,22.17c6-3.5,13.34-2.07,19.84-1C37.32,24.41,37,27.79,36.05,31l-2,.24c0-3-.76-6.66-3.85-8-3-1.05-7-.88-9.26,1.61s-1.6,6.58.65,8.87c4.28,4.42,10.87,5.8,14.79,10.66C40.51,49.31,39.45,58,33.52,61c-5,2.65-11.1,2.58-16.36.77-2.06-.77-4.32-2.21-4.63-4.58-.12-2.31.83-4.5,1.53-6.65l2.15-.1c.27,2.18.4,4.55,1.72,6.4,2.54,3.75,8.09,4.49,11.91,2.4a5.84,5.84,0,0,0,2.62-6.74c-.68-3-3.23-4.92-5.63-6.51-4-2.63-8.74-4.58-11.59-8.62C11.86,32.61,13.15,25.12,18.32,22.17Z" transform="translate(5.65 4.9)"/><path class="cls-2" d="M52.39,20.36a47.87,47.87,0,0,0,5.49.33q13.75,0,27.5,0a46.3,46.3,0,0,0,5.26-.35c-.52,3.6-1.28,7.17-1.86,10.76l-2.27,0c-.18-2.41.06-5.63-2.49-6.91-2.76-1.13-5.83-.64-8.73-.72-.92-.16-2,.44-1.69,1.46-.18,11.56.32,23.15-.26,34.7,2,.19,4,.37,6,.59,0,.59,0,1.2-.08,1.79l-16.67.42c0-.48,0-1.45,0-1.93,2-.57,4.28-1.68,4.26-4.05.1-11,0-22,0-33-3,.13-6.17-.41-9.11.51-2.94,1.18-3.94,4.48-5.18,7.1H50.44C51.11,27.53,51.62,23.92,52.39,20.36Z" transform="translate(5.65 4.9)"/><path class="cls-2" d="M100.43,20.71c4.46-.06,8.93,0,13.39-.31a15.56,15.56,0,0,0-2,7.88c0,6.5,0,13,0,19.51a12.32,12.32,0,0,0,4,9.28c5.26,4.49,14.4,3.4,18.1-2.57,2.26-3.37,1.9-7.59,1.9-11.45-.08-5.84.16-11.7-.11-17.54-.11-2.42-2.92-2.62-4.73-3V20.69c4.27,0,8.54-.13,12.81.1-1.55,2-4.36,3.29-4.46,6.16-.18,7.19.07,14.38-.1,21.57a14.51,14.51,0,0,1-6.87,11.86,21.55,21.55,0,0,1-18.78,1,13.4,13.4,0,0,1-8.18-10.26c-.82-8.7.05-17.5-.47-26.22C104.66,22.14,100,23.74,100.43,20.71Z" transform="translate(5.65 4.9)"/><path class="cls-2" d="M464,21c6.29.67,12.64.19,18.95.33,6.3-.13,12.62.32,18.89-.33-.5,3.58-1.29,7.1-1.87,10.66h-2.21c-.06-2.32,0-5.3-2.21-6.71-3.22-1.42-6.85-.61-10.24-.83-.07.34-.2,1-.26,1.36-.36,11.46.29,23-.35,34.4,2,.19,4.08.38,6.12.6-.08.58-.16,1.17-.23,1.76l-16.51.41V60.8c1.9-.62,4.27-1.64,4.21-4,.11-10.87,0-21.75,0-32.62-2.75.09-5.55-.27-8.26.28-3.37.81-4.58,4.42-5.8,7.23l-2.21,0C462.77,28.16,463.23,24.57,464,21Z" transform="translate(5.65 4.9)"/><path class="cls-2" d="M523.52,21.59c1-.22,2.06-.43,3.11-.6q6.92,18,13.89,35.92a5.65,5.65,0,0,0,4,3.91c0,.41-.1,1.22-.14,1.62q-6.54.06-13.09.23c0-.5,0-1.49,0-2a12.36,12.36,0,0,0,2.42-1c.49-.77,0-1.67-.2-2.43-1-2.78-2.09-5.53-3.07-8.31-4.56,0-9.12-.07-13.66,0-.9-.1-1.2.94-1.5,1.56-1.18,3.1-2.35,6.2-3.55,9.29,1.73.27,3.48.52,5.22.77-.08.46-.23,1.37-.31,1.83H505c0-.57,0-1.13.05-1.69,1.6-.54,3.44-1.2,4-3C513.91,45.73,518.75,33.67,523.52,21.59Zm-.13,7.71Q520.18,37.64,517,46c4.12,0,8.26,0,12.39,0C527.33,40.45,525.24,34.92,523.39,29.3Z" transform="translate(5.65 4.9)"/><path class="cls-2" d="M556,21.39c4.44-.05,8.88,0,13.31-.3a14.56,14.56,0,0,0-2,6.5C567,38.28,567.65,49,567,59.67c4-.11,8.09.23,12.1-.21,3.88-.88,5.19-5.2,6.76-8.35l2.25-.1c-.75,3.84-1.71,7.63-2.52,11.45-9.7,0-19.4-.13-29.1.21l0-1.91c1.92-.49,4.23-1.59,4.08-3.95.08-9.31,0-18.63,0-27.94a14.35,14.35,0,0,0-.31-3.88C559.49,22.92,555.64,24.24,556,21.39Z" transform="translate(5.65 4.9)"/><path class="cls-2" d="M156,20.69c6.64,0,13.29-.1,19.94.06,6.89.37,14.47,2.59,18.51,8.6,4.55,7.22,3.68,17.28-1.45,24-4.63,5.9-12.29,8.61-19.61,8.83-5.57.13-11.15.06-16.72.27,0-.49,0-1.45,0-1.94,1.19-.47,2.58-.73,3.45-1.75,1-1.2.8-2.87.85-4.32-.07-9.58.09-19.17-.08-28.74,0-2.55-3-2.86-4.9-3.3C156,22,156,21.12,156,20.69Zm11.75,3.38c-.3,11.79.3,23.6-.32,35.37,4.45,0,9.09.28,13.24-1.64,5.18-2,8.51-7.33,9-12.76.79-6.41-.31-13.85-5.59-18.16-4.32-3.61-10.29-3.6-15.62-3.32C168.26,23.69,167.91,24,167.74,24.07Z" transform="translate(5.65 4.9)"/><path class="cls-2" d="M210.42,22.38c0-.57,0-1.13,0-1.7,4.36,0,8.73.07,13.09-.3a17.23,17.23,0,0,0-2,7.14c-.19,10.71.15,21.44-.18,32.16,1.83.18,3.67.36,5.51.59L226.65,62l-16.1.42c0-.64,0-1.27,0-1.91,1.85-.64,4.36-1.67,4.16-4,0-10.32,0-20.63,0-30.94C215,23.15,212.1,22.88,210.42,22.38Z" transform="translate(5.65 4.9)"/><path class="cls-2" d="M314.5,21.37c6.41,0,12.81-.07,19.2.05,7,.31,14.71,2.48,18.75,8.61,4.4,7.08,3.57,16.89-1.39,23.48a21.55,21.55,0,0,1-9.5,6.9C333.1,63.7,323.85,62,315,62.67c0-.64,0-1.27,0-1.91,1.92-.53,4.32-1.57,4.2-4,.1-9.3,0-18.6.05-27.91-.06-1.37.14-2.87-.55-4.12-1.06-1.18-2.78-1.23-4.2-1.66C314.53,22.66,314.52,21.8,314.5,21.37Zm11.67,2.77c-.77,11.81.23,23.71-.52,35.53,2.68,0,5.37,0,8.05-.22,4.58-.6,9.23-2.86,11.62-7,2.66-4.3,2.81-9.56,2.3-14.45-.69-4.88-3.29-9.8-7.85-12.06C335.6,23.75,330.73,24.17,326.17,24.14Z" transform="translate(5.65 4.9)"/><path class="cls-2" d="M408.9,21.4c3,0,5.93-.14,8.9-.29a80,80,0,0,0,6.91,8.26c6.61,7.47,13.42,14.77,19.86,22.4,0-7.42,0-14.84,0-22.25a31.2,31.2,0,0,0-.37-4.73,10.1,10.1,0,0,0-4.67-1.59V21.36c4.2.07,8.41-.16,12.59.15-1.3,1.45-3.27,2.39-4,4.31a9.62,9.62,0,0,0-.58,3.76c0,11.07,0,22.14,0,33.21l-1.93,0c-7.73-8.62-15.29-17.38-23-26a81.63,81.63,0,0,1-5.57-6.74c-.17,10,.35,20.05-.28,30,1.82.12,3.64.26,5.46.41l-.24,1.76c-4.09.14-8.19.26-12.29.41v-1.9c1.89-.58,4.51-1.49,4.31-4,0-9.79.14-19.59-.08-29.37-.07-2.64-2.66-3.7-4.75-4.48Z" transform="translate(5.65 4.9)"/><path class="cls-2" d="M260.82,20.21c4.32-.43,8.82-.36,12.91,1.28a18.7,18.7,0,0,1,11.47,12c3.42,10.39-2,22.82-12,27.33-7.58,3.5-17.24,2.92-23.84-2.4-8-6.31-9.68-18.46-4.84-27.18A21.5,21.5,0,0,1,260.82,20.21Zm-1.69,3.23a14.23,14.23,0,0,0-7.79,7.42,24.11,24.11,0,0,0,.69,21c1.9,3.72,5.14,7,9.27,8,4.78,1.45,10.13-.73,13.08-4.64,4.08-5.27,5-12.41,3.77-18.83-1-4.81-3.65-9.62-8.09-12.06A13.51,13.51,0,0,0,259.13,23.44Z" transform="translate(5.65 4.9)"/><path class="cls-2" d="M395.18,52.19c-1.45,2.67-2.5,6.44-5.83,7.24-4.1.49-8.26.11-12.37.25.51-5.5.11-11,.28-16.55a79.25,79.25,0,0,1,9.87-.23V40.13c-3.3,0-6.6,0-9.9,0,.14-5.2-.29-10.48.2-15.63a34.77,34.77,0,0,1,11.29,0c3.29.61,3.41,4.49,3.28,7.15l2.27,0c.5-3.54,1.3-7,1.84-10.56-10.13.51-20.29.11-30.42.23,0,.57,0,1.14,0,1.7a14.41,14.41,0,0,1,3.76,1.17c1.34.88,1.1,2.65,1.16,4-.06,9.63.09,19.28-.07,28.92-.11,2.2-2.4,3-4.17,3.58,0,.63,0,1.26-.05,1.9,9.59-.31,19.17-.16,28.76-.2.81-3.39,1.47-6.81,2.32-10.19Z" transform="translate(5.65 4.9)"/><path class="cls-2" d="M284,62.28a27.73,27.73,0,0,1-7.73,5.65A30,30,0,0,1,263,71a28,28,0,0,1-18.35-6.69,24,24,0,0,1-2.12-2l-2.2,1.79a.79.79,0,0,0-.08,1.16q.87.89,1.8,1.68A31.94,31.94,0,0,0,263,74.56a33.92,33.92,0,0,0,15-3.5,31.54,31.54,0,0,0,8.24-5.83.79.79,0,0,0-.06-1.17Z" transform="translate(5.65 4.9)"/></svg>